<svg width="172" height="174" viewBox="0 0 172 174" fill="none" xmlns="http://www.w3.org/2000/svg">
<g filter="url(#filter0_f_38_3477)">
<g filter="url(#filter1_df_38_3477)">
<path d="M86 152.201C122.562 152.201 152.201 122.562 152.201 85.9998C152.201 49.4377 122.562 19.7983 86 19.7983C49.4379 19.7983 19.7986 49.4377 19.7986 85.9998C19.7986 122.562 49.4379 152.201 86 152.201Z" fill="#FA9E42"/>
</g>
<path d="M86 168.907C131.788 168.907 168.906 131.788 168.906 86.0002C168.906 40.2122 131.788 3.09375 86 3.09375C40.212 3.09375 3.09354 40.2122 3.09354 86.0002C3.09354 131.788 40.212 168.907 86 168.907Z" stroke="#FA9E42" stroke-width="6.18705" stroke-linecap="round" stroke-dasharray="0.62 40.83"/>
<g filter="url(#filter2_f_38_3477)">
<path d="M78.9283 72.8833C102.087 60.5829 115.187 39.93 108.188 26.7538C101.19 13.5776 76.743 12.8676 53.5847 25.168C30.4263 37.4685 17.3261 58.1214 24.3245 71.2976C31.323 84.4738 55.7699 85.1838 78.9283 72.8833Z" fill="#F8E36F"/>
</g>
</g>
<defs>
<filter id="filter0_f_38_3477" x="-1.23741" y="-1.23741" width="174.475" height="174.475" filterUnits="userSpaceOnUse" color-interpolation-filters="sRGB">
<feFlood flood-opacity="0" result="BackgroundImageFix"/>
<feBlend mode="normal" in="SourceGraphic" in2="BackgroundImageFix" result="shape"/>
<feGaussianBlur stdDeviation="0.618705" result="effect1_foregroundBlur_38_3477"/>
</filter>
<filter id="filter1_df_38_3477" x="7.42445" y="2.4746" width="169.525" height="169.525" filterUnits="userSpaceOnUse" color-interpolation-filters="sRGB">
<feFlood flood-opacity="0" result="BackgroundImageFix"/>
<feColorMatrix in="SourceAlpha" type="matrix" values="0 0 0 0 0 0 0 0 0 0 0 0 0 0 0 0 0 0 127 0" result="hardAlpha"/>
<feOffset dx="6.18705" dy="1.23741"/>
<feGaussianBlur stdDeviation="9.28058"/>
<feColorMatrix type="matrix" values="0 0 0 0 0 0 0 0 0 0 0 0 0 0 0 0 0 0 0.25 0"/>
<feBlend mode="normal" in2="BackgroundImageFix" result="effect1_dropShadow_38_3477"/>
<feBlend mode="normal" in="SourceGraphic" in2="effect1_dropShadow_38_3477" result="shape"/>
<feGaussianBlur stdDeviation="1.23741" result="effect2_foregroundBlur_38_3477"/>
</filter>
<filter id="filter2_f_38_3477" x="10.066" y="4.01359" width="112.381" height="90.0241" filterUnits="userSpaceOnUse" color-interpolation-filters="sRGB">
<feFlood flood-opacity="0" result="BackgroundImageFix"/>
<feBlend mode="normal" in="SourceGraphic" in2="BackgroundImageFix" result="shape"/>
<feGaussianBlur stdDeviation="6.18705" result="effect1_foregroundBlur_38_3477"/>
</filter>
</defs>
</svg>
