<svg width="36" height="36" viewBox="0 0 36 36" fill="none" xmlns="http://www.w3.org/2000/svg">
<path d="M4.5 16.875H1.125C0.504 16.875 0 17.379 0 18C0 18.621 0.504 19.125 1.125 19.125H4.5C5.121 19.125 5.625 18.621 5.625 18C5.625 17.379 5.121 16.875 4.5 16.875ZM18 5.625C18.621 5.625 19.125 5.121 19.125 4.5V1.125C19.125 0.504 18.621 0 18 0C17.379 0 16.875 0.504 16.875 1.125V4.5C16.875 5.121 17.379 5.625 18 5.625ZM28.8236 8.75247L31.1873 6.38882C31.6226 5.95347 31.6226 5.24806 31.1873 4.81271C30.7519 4.37735 30.0465 4.37735 29.6111 4.81271L27.2475 7.17635C26.8121 7.61171 26.8121 8.31712 27.2475 8.75247C27.6829 9.18788 28.3883 9.18788 28.8236 8.75247ZM8.33624 26.0888L5.97259 28.4524C5.53724 28.8878 5.53724 29.5932 5.97259 30.0285C6.40794 30.4639 7.11335 30.4639 7.54871 30.0285L9.91235 27.6649C10.3477 27.2295 10.3477 26.5241 9.91235 26.0888C9.477 25.6534 8.77165 25.6534 8.33624 26.0888ZM7.659 9.24976C8.09888 9.68965 8.811 9.68965 9.24971 9.24976C9.68847 8.80988 9.68847 8.09776 9.24971 7.65906L6.86365 5.27176C6.42376 4.83188 5.71165 4.83188 5.27288 5.27176C4.833 5.71165 4.833 6.42376 5.27288 6.86253L7.659 9.24976ZM18 30.375C17.379 30.375 16.875 30.879 16.875 31.5V34.875C16.875 35.496 17.379 36 18 36C18.621 36 19.125 35.496 19.125 34.875V31.5C19.125 30.879 18.621 30.375 18 30.375ZM28.341 26.7502C27.9011 26.3104 27.189 26.3104 26.7502 26.7502C26.3104 27.1902 26.3104 27.9022 26.7502 28.341L29.1364 30.7271C29.5762 31.167 30.2884 31.167 30.7271 30.7271C31.1659 30.2872 31.167 29.5751 30.7271 29.1364L28.341 26.7502ZM34.875 16.875H31.5C30.879 16.875 30.375 17.379 30.375 18C30.375 18.621 30.879 19.125 31.5 19.125H34.875C35.496 19.125 36 18.621 36 18C36 17.379 35.496 16.875 34.875 16.875ZM18 7.86824C12.4042 7.86824 7.86824 12.4042 7.86824 18C7.86824 23.5958 12.4042 28.1318 18 28.1318C23.5958 28.1318 28.1318 23.5958 28.1318 18C28.1318 12.4042 23.5958 7.86824 18 7.86824ZM18 25.8728C13.6519 25.8728 10.1272 22.3481 10.1272 18C10.1272 13.6519 13.6519 10.1272 18 10.1272C22.3481 10.1272 25.8728 13.6519 25.8728 18C25.8728 22.3481 22.3481 25.8728 18 25.8728Z" fill="white"/>
</svg>
