<svg width="21" height="21" viewBox="0 0 21 21" fill="none" xmlns="http://www.w3.org/2000/svg">
<path d="M6.125 10.5C6.99029 10.5 7.83615 10.2434 8.55562 9.76268C9.27508 9.28195 9.83584 8.59867 10.167 7.79924C10.4981 6.99982 10.5847 6.12015 10.4159 5.27148C10.2471 4.42282 9.83045 3.64326 9.21859 3.03141C8.60674 2.41956 7.82719 2.00288 6.97852 1.83407C6.12985 1.66526 5.25019 1.7519 4.45076 2.08303C3.65133 2.41416 2.96805 2.97492 2.48732 3.69438C2.00659 4.41385 1.75 5.25971 1.75 6.125C1.75139 7.2849 2.21277 8.39689 3.03294 9.21706C3.85311 10.0372 4.9651 10.4986 6.125 10.5ZM6.125 3.5C6.64418 3.5 7.15169 3.65396 7.58337 3.94239C8.01505 4.23083 8.3515 4.6408 8.55018 5.12046C8.74886 5.60011 8.80085 6.12791 8.69956 6.63711C8.59828 7.14631 8.34827 7.61404 7.98116 7.98116C7.61404 8.34827 7.14631 8.59828 6.63711 8.69956C6.12791 8.80085 5.60011 8.74887 5.12046 8.55019C4.6408 8.35151 4.23083 8.01505 3.94239 7.58337C3.65395 7.1517 3.5 6.64418 3.5 6.125C3.5 5.42881 3.77656 4.76113 4.26884 4.26885C4.76113 3.77656 5.42881 3.5 6.125 3.5ZM10.5 12.25C9.80777 12.25 9.13108 12.4553 8.5555 12.8399C7.97993 13.2244 7.53133 13.7711 7.26642 14.4106C7.00151 15.0502 6.9322 15.7539 7.06725 16.4328C7.2023 17.1118 7.53564 17.7354 8.02513 18.2249C8.51461 18.7144 9.13825 19.0477 9.81718 19.1828C10.4961 19.3178 11.1999 19.2485 11.8394 18.9836C12.4789 18.7187 13.0256 18.2701 13.4101 17.6945C13.7947 17.1189 14 16.4422 14 15.75C14 14.8217 13.6313 13.9315 12.9749 13.2751C12.3185 12.6188 11.4283 12.25 10.5 12.25ZM10.5 17.5C10.1539 17.5 9.81554 17.3974 9.52775 17.2051C9.23997 17.0128 9.01566 16.7395 8.88321 16.4197C8.75076 16.0999 8.7161 15.7481 8.78363 15.4086C8.85115 15.0691 9.01782 14.7573 9.26256 14.5126C9.50731 14.2678 9.81913 14.1012 10.1586 14.0336C10.4981 13.9661 10.8499 14.0008 11.1697 14.1332C11.4895 14.2657 11.7628 14.49 11.9551 14.7778C12.1474 15.0655 12.25 15.4039 12.25 15.75C12.25 16.2141 12.0656 16.6592 11.7374 16.9874C11.4092 17.3156 10.9641 17.5 10.5 17.5ZM19.25 7.875C19.25 7.35583 19.096 6.84831 18.8076 6.41663C18.5192 5.98495 18.1092 5.6485 17.6295 5.44982C17.1499 5.25114 16.6221 5.19915 16.1129 5.30044C15.6037 5.40173 15.136 5.65173 14.7688 6.01885C14.4017 6.38596 14.1517 6.85369 14.0504 7.36289C13.9492 7.87209 14.0011 8.39989 14.1998 8.87955C14.3985 9.3592 14.7349 9.76917 15.1666 10.0576C15.5983 10.346 16.1058 10.5 16.625 10.5C17.3212 10.5 17.9889 10.2234 18.4812 9.73116C18.9734 9.23887 19.25 8.5712 19.25 7.875ZM16.625 8.75C16.4519 8.75 16.2828 8.69868 16.1389 8.60254C15.995 8.50639 15.8828 8.36974 15.8166 8.20985C15.7504 8.04997 15.7331 7.87403 15.7668 7.7043C15.8006 7.53456 15.8839 7.37865 16.0063 7.25628C16.1287 7.13391 16.2846 7.05058 16.4543 7.01681C16.624 6.98305 16.8 7.00038 16.9598 7.06661C17.1197 7.13283 17.2564 7.24498 17.3525 7.38888C17.4487 7.53277 17.5 7.70194 17.5 7.875C17.5 8.10707 17.4078 8.32963 17.2437 8.49372C17.0796 8.65781 16.8571 8.75 16.625 8.75ZM14 4.375C14 4.54806 13.9487 4.71723 13.8525 4.86113C13.7564 5.00502 13.6197 5.11717 13.4598 5.1834C13.3 5.24962 13.124 5.26695 12.9543 5.23319C12.7846 5.19943 12.6287 5.11609 12.5063 4.99372C12.3839 4.87135 12.3006 4.71544 12.2668 4.54571C12.2331 4.37597 12.2504 4.20004 12.3166 4.04015C12.3828 3.88027 12.495 3.74361 12.6389 3.64747C12.7828 3.55132 12.9519 3.5 13.125 3.5C13.3571 3.5 13.5796 3.59219 13.7437 3.75628C13.9078 3.92038 14 4.14294 14 4.375ZM16.625 13.125C16.7981 13.125 16.9672 13.1763 17.1111 13.2725C17.255 13.3686 17.3672 13.5053 17.4334 13.6652C17.4996 13.825 17.5169 14.001 17.4832 14.1707C17.4494 14.3404 17.3661 14.4963 17.2437 14.6187C17.1213 14.7411 16.9654 14.8244 16.7957 14.8582C16.626 14.892 16.45 14.8746 16.2902 14.8084C16.1303 14.7422 15.9936 14.63 15.8975 14.4861C15.8013 14.3422 15.75 14.1731 15.75 14C15.75 13.7679 15.8422 13.5454 16.0063 13.3813C16.1704 13.2172 16.3929 13.125 16.625 13.125ZM5.25 11.375C5.42306 11.375 5.59223 11.4263 5.73612 11.5225C5.88002 11.6186 5.99217 11.7553 6.05839 11.9152C6.12462 12.075 6.14195 12.251 6.10819 12.4207C6.07443 12.5904 5.99109 12.7463 5.86872 12.8687C5.74635 12.9911 5.59044 13.0744 5.4207 13.1082C5.25097 13.142 5.07504 13.1246 4.91515 13.0584C4.75527 12.9922 4.61861 12.88 4.52246 12.7361C4.42632 12.5922 4.375 12.4231 4.375 12.25C4.375 12.0179 4.46719 11.7954 4.63128 11.6313C4.79538 11.4672 5.01794 11.375 5.25 11.375Z" fill="#D1D1E0"/>
</svg>
