<svg width="20" height="18" viewBox="0 0 20 18" fill="none" xmlns="http://www.w3.org/2000/svg">
<path d="M8.72979 17.7559C8.90306 17.9131 9.13243 18.0004 9.37068 18C9.60804 18.0019 9.83566 17.9094 9.99947 17.7443C10.1723 17.5824 10.2698 17.3603 10.2698 17.1284C10.2698 16.8965 10.1723 16.6744 9.99947 16.5125L3.10683 9.88853H19.0931C19.594 9.88853 20 9.49831 20 9.01696C20 8.53561 19.594 8.14539 19.0931 8.14539H3.10418L10.0116 1.48671C10.1844 1.32484 10.2819 1.10274 10.2819 0.870799C10.2819 0.638861 10.1844 0.416757 10.0116 0.254892C9.65748 -0.0849641 9.08387 -0.0849641 8.72979 0.254892L0.265231 8.38951C-0.0884103 8.72978 -0.0884103 9.28104 0.265231 9.62132L8.72979 17.7559Z" fill="#D1D1E0"/>
</svg>
