<svg width="53" height="53" viewBox="0 0 53 53" fill="none" xmlns="http://www.w3.org/2000/svg">
<path d="M0 26.0978C0 25.5081 0.196594 24.992 0.614356 24.5742C1.03212 24.1811 1.54818 23.9845 2.08881 23.9845H7.10196C7.66716 23.9845 8.13407 24.1811 8.52726 24.5988C8.89588 25.0166 9.09247 25.5081 9.09247 26.0978C9.09247 26.6876 8.92045 27.1791 8.55184 27.5969C8.18322 28.0146 7.69174 28.2112 7.12653 28.2112H2.11338C1.54818 28.2112 1.05669 28.0146 0.638931 27.5969C0.221169 27.1791 0 26.6876 0 26.0978ZM7.02823 43.1278C7.02823 42.5626 7.22483 42.0711 7.59344 41.6288L11.2059 38.1146C11.5745 37.7215 12.066 37.5494 12.6557 37.5494C13.2455 37.5494 13.737 37.746 14.1302 38.1146C14.5234 38.4833 14.72 38.9502 14.72 39.5154C14.72 40.1052 14.5234 40.6458 14.1302 41.0881L10.6406 44.5777C9.6331 45.364 8.62556 45.364 7.61801 44.5777C7.22483 44.1845 7.02823 43.693 7.02823 43.1278ZM7.02823 9.11704C7.02823 8.55184 7.22483 8.06035 7.59344 7.61801C8.08493 7.20025 8.60098 7.00366 9.16619 7.00366C9.70683 7.00366 10.1983 7.20025 10.6161 7.59344L14.1302 11.2059C14.5234 11.5745 14.72 12.066 14.72 12.6557C14.72 13.2455 14.5234 13.737 14.1302 14.1302C13.737 14.5234 13.2455 14.72 12.6557 14.72C12.066 14.72 11.5745 14.5234 11.2059 14.1302L7.61801 10.6161C7.22483 10.2229 7.02823 9.70682 7.02823 9.11704ZM13.2947 26.0978C13.2947 23.8124 13.8599 21.6745 15.0149 19.7085C16.1698 17.7426 17.718 16.1698 19.7085 15.0149C21.6991 13.8599 23.8124 13.2947 26.0978 13.2947C27.818 13.2947 29.4645 13.6387 31.0618 14.3268C32.6346 15.0149 34.0107 15.9241 35.1412 17.0791C36.2962 18.2341 37.2054 19.5857 37.8689 21.1584C38.5324 22.7312 38.8764 24.4022 38.8764 26.1224C38.8764 28.4324 38.3112 30.5704 37.1562 32.5363C36.0013 34.5022 34.4531 36.0504 32.4871 37.2054C30.5212 38.3604 28.3832 38.9256 26.0733 38.9256C23.7633 38.9256 21.6253 38.3604 19.6594 37.2054C17.6935 36.0504 16.1453 34.5022 14.9903 32.5363C13.8844 30.5458 13.2947 28.4078 13.2947 26.0978ZM17.4723 26.0978C17.4723 28.5061 18.3078 30.5458 20.0034 32.2414C21.6745 33.937 23.7141 34.7971 26.1224 34.7971C28.5307 34.7971 30.5704 33.937 32.266 32.2414C33.9616 30.5458 34.8217 28.5061 34.8217 26.0978C34.8217 23.7387 33.9616 21.7236 32.266 20.028C30.5704 18.357 28.5307 17.5214 26.1224 17.5214C23.7387 17.5214 21.6991 18.357 20.028 20.028C18.3078 21.7236 17.4723 23.7387 17.4723 26.0978ZM24.009 45.2166C24.009 44.6268 24.2056 44.1353 24.6234 43.7421C25.0412 43.349 25.5326 43.1524 26.0978 43.1524C26.6876 43.1524 27.2037 43.349 27.5969 43.7421C27.9901 44.1353 28.1867 44.6268 28.1867 45.2166V50.1069C28.1867 50.6967 27.9901 51.2127 27.5723 51.6305C27.1545 52.0482 26.663 52.2448 26.0978 52.2448C25.5326 52.2448 25.0166 52.0482 24.6234 51.6305C24.2056 51.2127 24.009 50.6967 24.009 50.1069V45.2166ZM24.009 7.12653V2.11338C24.009 1.54818 24.2056 1.05669 24.6234 0.638931C25.0412 0.221169 25.5326 0 26.1224 0C26.7122 0 27.1791 0.196594 27.5969 0.614356C28.0146 1.03212 28.2112 1.5236 28.2112 2.08881V7.12653C28.2112 7.69174 28.0146 8.15865 27.5969 8.55184C27.1791 8.94502 26.6876 9.11704 26.1224 9.11704C25.5572 9.11704 25.0411 8.92045 24.648 8.55184C24.2548 8.18322 24.009 7.69174 24.009 7.12653ZM37.574 39.5154C37.574 38.9502 37.7706 38.4833 38.1392 38.1392C38.5078 37.746 38.9747 37.574 39.5154 37.574C40.1052 37.574 40.5966 37.7706 40.9898 38.1392L44.5777 41.6533C44.9709 42.0711 45.1675 42.5872 45.1675 43.1524C45.1675 43.7176 44.9709 44.2091 44.5777 44.6022C43.5947 45.364 42.6117 45.364 41.6288 44.6022L38.1392 41.1127C37.7706 40.6704 37.574 40.1543 37.574 39.5154ZM37.574 12.6803C37.574 12.066 37.7706 11.5745 38.1392 11.2304L41.6288 7.61801C42.0465 7.22483 42.538 7.02823 43.0786 7.02823C43.6684 7.02823 44.1599 7.22483 44.5531 7.64259C44.9709 8.06035 45.1675 8.55184 45.1675 9.11704C45.1675 9.7314 44.9709 10.2475 44.5777 10.6406L40.9898 14.1548C40.5475 14.548 40.056 14.7445 39.5154 14.7445C38.9502 14.7445 38.5078 14.548 38.1392 14.1548C37.7706 13.7616 37.574 13.2701 37.574 12.6803ZM43.1278 26.0978C43.1278 25.5081 43.3244 25.0166 43.7176 24.5742C44.1108 24.1811 44.5777 23.9845 45.1183 23.9845H50.0823C50.6475 23.9845 51.139 24.2056 51.5568 24.6234C51.9745 25.0412 52.1957 25.5326 52.1957 26.0978C52.1957 26.663 51.9745 27.1545 51.5568 27.5723C51.139 27.9901 50.6475 28.1867 50.0823 28.1867H45.1183C44.5531 28.1867 44.0616 27.9901 43.693 27.5723C43.3244 27.1545 43.1278 26.6876 43.1278 26.0978Z" fill="#D1D1E0"/>
</svg>
