<svg width="53" height="35" viewBox="0 0 53 35" fill="none" xmlns="http://www.w3.org/2000/svg">
<path d="M0.195679 24.2317C0.195679 21.9051 0.924209 19.8135 2.38127 18.004C3.83833 16.1944 5.69491 15.0193 7.9745 14.5023C8.58553 11.7527 9.97209 9.47311 12.1577 7.73404C14.3433 5.97146 16.8579 5.10193 19.725 5.10193C22.4981 5.10193 24.9892 5.94796 27.1513 7.66354C29.3369 9.37911 30.747 11.5647 31.3815 14.2438H32.016C34.7891 14.2438 37.1392 15.2074 39.0898 17.1579C41.0404 19.1085 42.0274 21.4586 42.0274 24.2082C42.0274 26.9813 41.0404 29.3314 39.0898 31.282C37.1392 33.2326 34.7891 34.2196 32.016 34.2196H10.2306C8.86754 34.2196 7.57499 33.9611 6.35294 33.4206C5.13089 32.8801 4.02634 32.2221 3.1333 31.329C2.24026 30.436 1.53523 29.3549 0.994712 28.1329C0.454189 26.9108 0.195679 25.5713 0.195679 24.2317ZM3.60332 24.2317C3.60332 26.0178 4.26135 27.5689 5.5304 28.8379C6.79945 30.107 8.37402 30.765 10.2071 30.765H32.016C33.8256 30.765 35.4002 30.1305 36.6927 28.8379C37.9853 27.5454 38.6433 26.0178 38.6433 24.2317C38.6433 22.4457 38.0088 20.8946 36.6927 19.6255C35.4002 18.3565 33.8491 17.6985 32.016 17.6985H28.7494C28.5144 17.6985 28.3969 17.5809 28.3969 17.3459L28.2324 16.1944C27.9973 13.9853 27.0573 12.1287 25.4357 10.6717C23.8142 9.2146 21.8871 8.48607 19.678 8.48607C17.4689 8.48607 15.5418 9.2146 13.8968 10.6952C12.2517 12.1522 11.3351 14.0088 11.1236 16.1944L10.9591 17.1814C10.9591 17.4164 10.8416 17.5339 10.5831 17.5339L9.52557 17.6985C7.8335 17.8395 6.42344 18.5445 5.27189 19.79C4.19085 21.0356 3.60332 22.5162 3.60332 24.2317ZM24.4017 3.73887C24.1667 3.95038 24.2137 4.11489 24.5662 4.23239C25.5767 4.67891 26.4228 5.10193 27.1043 5.52495C27.3628 5.59545 27.5508 5.57195 27.6213 5.45444C29.0549 4.11489 30.7 3.43336 32.6035 3.43336C34.5071 3.43336 36.1287 4.06789 37.5387 5.33694C38.9253 6.60599 39.7008 8.18056 39.8653 10.0371L40.0769 11.5412H43.414C44.9416 11.5412 46.2576 12.0817 47.3622 13.1863C48.4667 14.2908 49.0072 15.5834 49.0072 17.0874C49.0072 18.4975 48.5137 19.7195 47.5502 20.7771C46.5866 21.8346 45.3881 22.4222 43.9545 22.5867C43.7195 22.5867 43.602 22.7042 43.602 22.9627V25.6183C43.602 25.8768 43.7195 25.9943 43.9545 25.9943C46.3281 25.8533 48.3257 24.9133 49.9473 23.1977C51.5688 21.4821 52.3914 19.4375 52.3914 17.0874C52.3914 14.5963 51.5218 12.4812 49.7593 10.7422C47.9967 8.97959 45.8816 8.11005 43.414 8.11005H43.0615C42.4504 5.75996 41.1579 3.83288 39.1838 2.30531C37.2332 0.777749 35.0241 0.025717 32.6035 0.025717C29.3134 0.00221607 26.5638 1.24777 24.4017 3.73887Z" fill="#D1D1E0"/>
</svg>
