<svg width="392" height="318" viewBox="0 0 392 318" fill="none" xmlns="http://www.w3.org/2000/svg">
<g filter="url(#filter0_f_39_4009)">
<path d="M121.151 212.951C114.86 212.951 108.584 212.315 102.421 211.051C90.5263 208.601 79.233 203.824 69.19 196.996C55.2765 187.565 44.1602 174.561 37.0093 159.349C29.8584 144.138 26.937 127.281 28.5522 110.551C30.1673 93.82 36.2594 77.8334 46.188 64.2708C56.1167 50.7082 69.5154 40.0706 84.976 33.4757C90.5964 31.0887 96.4401 29.2665 102.421 28.0357C112.154 26.0439 122.142 25.6156 132.009 26.7667C129.908 31.3617 128.301 36.1666 127.215 41.1007C126.098 46.1918 125.536 51.3887 125.537 56.6007C125.514 70.9078 129.786 84.8925 137.799 96.7447C142.965 104.389 149.548 110.973 157.192 116.139C161.035 118.734 165.121 120.951 169.392 122.759C178.234 126.501 187.739 128.42 197.34 128.401C202.895 128.405 208.432 127.767 213.84 126.501C212.565 144.072 206.338 160.923 195.879 175.101C192.496 179.687 188.703 183.957 184.546 187.857C167.388 204.001 144.71 212.978 121.151 212.951Z" fill="#713FFD"/>
</g>
<g filter="url(#filter1_f_39_4009)">
<path d="M104.798 106.696C125.66 87.9115 132.154 61.1139 119.304 46.8417C106.453 32.5695 79.1231 36.2273 58.2611 55.0115C37.3991 73.7958 30.9047 100.593 43.7554 114.866C56.6062 129.138 83.9358 125.48 104.798 106.696Z" fill="#A586FC"/>
</g>
<g filter="url(#filter2_f_39_4009)">
<path d="M75.987 2L79.087 9.665L87.487 12.5L79.087 15.335L75.987 23L72.887 15.335L64.487 12.5L72.887 9.665L75.987 2Z" fill="url(#paint0_linear_39_4009)"/>
<g filter="url(#filter3_f_39_4009)">
<path d="M214.987 181L217.552 187.2L224.487 189.5L217.552 191.8L214.987 198L212.422 191.8L205.487 189.5L212.422 187.2L214.987 181Z" fill="url(#paint1_linear_39_4009)"/>
</g>
<path d="M173.496 25.8661L177.806 31.5134L185.487 31.9701L179.065 36.2081L178.158 43.2541L173.848 37.6067L166.167 37.1501L172.589 32.912L173.496 25.8661Z" fill="url(#paint2_linear_39_4009)"/>
<path d="M19.7495 167.064L24.3953 171.44L31.627 170.717L26.0844 175.418L26.0055 181.8L21.3597 177.424L14.128 178.146L19.6706 173.445L19.7495 167.064Z" fill="url(#paint3_linear_39_4009)"/>
<path d="M169.432 88.4746L164.323 89.5119L161.299 94.8074L160.903 88.7223L156.766 85.5503L161.875 84.513L164.899 79.2175L165.295 85.3026L169.432 88.4746Z" fill="url(#paint4_linear_39_4009)"/>
</g>
<g filter="url(#filter4_df_39_4009)">
<g filter="url(#filter5_d_39_4009)">
<path d="M235.781 285.765C233.848 285.92 231.895 285.999 229.924 286H92.3999C82.9337 286.035 73.5536 284.201 64.7978 280.603C56.0419 277.005 48.0826 271.714 41.3765 265.032C34.6703 258.351 29.3492 250.412 25.7185 241.669C22.0877 232.927 20.2187 223.554 20.2188 214.087C20.2187 204.621 22.0877 195.248 25.7185 186.506C29.3492 177.763 34.6703 169.824 41.3765 163.143C48.0826 156.461 56.0419 151.17 64.7978 147.572C73.5536 143.974 82.9337 142.14 92.3999 142.175H143.676C160.3 105.6 198.587 80 243.16 80C302.987 80 351.487 126.115 351.487 183C351.487 239.885 302.987 286 243.16 286C240.68 286 238.22 285.922 235.781 285.765Z" fill="url(#paint5_linear_39_4009)"/>
<path d="M243.16 285C250.445 285 257.726 284.302 264.8 282.926C271.693 281.585 278.474 279.584 284.952 276.978C291.313 274.42 297.448 271.254 303.186 267.568C308.869 263.917 314.213 259.725 319.07 255.107C323.925 250.49 328.333 245.411 332.171 240.009C336.045 234.557 339.373 228.728 342.061 222.686C344.798 216.532 346.9 210.093 348.309 203.547C349.754 196.831 350.487 189.917 350.487 183C350.487 176.082 349.754 169.169 348.309 162.452C346.9 155.906 344.798 149.467 342.061 143.314C339.373 137.272 336.045 131.443 332.171 125.991C328.333 120.589 323.925 115.51 319.07 110.893C314.213 106.275 308.869 102.083 303.186 98.4323C297.448 94.7461 291.313 91.5801 284.952 89.0221C278.474 86.4165 271.693 84.4154 264.8 83.0742C257.726 81.6979 250.445 81 243.16 81C221.789 81 201.15 86.9523 183.473 98.2135C174.953 103.642 167.296 110.194 160.716 117.688C154.095 125.229 148.668 133.607 144.586 142.588L144.319 143.175H143.675H92.3996C82.8261 143.175 73.5394 145.049 64.7976 148.747C60.5959 150.524 56.5434 152.724 52.7524 155.285C48.9973 157.822 45.4661 160.735 42.2569 163.945C39.0476 167.154 36.1341 170.685 33.5971 174.44C31.0361 178.231 28.8364 182.284 27.0592 186.485C23.3617 195.227 21.4869 204.514 21.4869 214.087C21.4869 223.661 23.3617 232.948 27.0592 241.689C28.8364 245.891 31.0361 249.944 33.5971 253.735C36.1341 257.49 39.0476 261.021 42.2569 264.23C45.4661 267.439 48.9973 270.353 52.7524 272.89C56.5434 275.451 60.5959 277.651 64.7976 279.428C73.5394 283.125 82.8261 285 92.3996 285H229.924C231.847 285 233.791 284.922 235.701 284.768L235.773 284.762L235.845 284.767C238.265 284.922 240.725 285 243.16 285ZM243.16 286C240.68 286 238.219 285.921 235.781 285.765C233.851 285.92 231.895 286 229.924 286H92.3996C52.6835 286 20.4869 253.803 20.4869 214.087C20.4869 174.371 52.6835 142.175 92.3996 142.175H143.675C160.3 105.595 198.585 80 243.16 80C302.987 80 351.487 126.115 351.487 183C351.487 239.885 302.987 286 243.16 286Z" fill="white" fill-opacity="0.5"/>
</g>
</g>
<defs>
<filter id="filter0_f_39_4009" x="24.1191" y="22.1367" width="193.721" height="194.814" filterUnits="userSpaceOnUse" color-interpolation-filters="sRGB">
<feFlood flood-opacity="0" result="BackgroundImageFix"/>
<feBlend mode="normal" in="SourceGraphic" in2="BackgroundImageFix" result="shape"/>
<feGaussianBlur stdDeviation="2" result="effect1_foregroundBlur_39_4009"/>
</filter>
<filter id="filter1_f_39_4009" x="17.1578" y="18.1357" width="128.743" height="125.436" filterUnits="userSpaceOnUse" color-interpolation-filters="sRGB">
<feFlood flood-opacity="0" result="BackgroundImageFix"/>
<feBlend mode="normal" in="SourceGraphic" in2="BackgroundImageFix" result="shape"/>
<feGaussianBlur stdDeviation="10" result="effect1_foregroundBlur_39_4009"/>
</filter>
<filter id="filter2_f_39_4009" x="12.1281" y="0" width="214.359" height="200" filterUnits="userSpaceOnUse" color-interpolation-filters="sRGB">
<feFlood flood-opacity="0" result="BackgroundImageFix"/>
<feBlend mode="normal" in="SourceGraphic" in2="BackgroundImageFix" result="shape"/>
<feGaussianBlur stdDeviation="1" result="effect1_foregroundBlur_39_4009"/>
</filter>
<filter id="filter3_f_39_4009" x="203.487" y="179" width="23" height="21" filterUnits="userSpaceOnUse" color-interpolation-filters="sRGB">
<feFlood flood-opacity="0" result="BackgroundImageFix"/>
<feBlend mode="normal" in="SourceGraphic" in2="BackgroundImageFix" result="shape"/>
<feGaussianBlur stdDeviation="1" result="effect1_foregroundBlur_39_4009"/>
</filter>
<filter id="filter4_df_39_4009" x="16.2188" y="76" width="339.268" height="218.001" filterUnits="userSpaceOnUse" color-interpolation-filters="sRGB">
<feFlood flood-opacity="0" result="BackgroundImageFix"/>
<feColorMatrix in="SourceAlpha" type="matrix" values="0 0 0 0 0 0 0 0 0 0 0 0 0 0 0 0 0 0 127 0" result="hardAlpha"/>
<feOffset dy="4"/>
<feGaussianBlur stdDeviation="2"/>
<feColorMatrix type="matrix" values="0 0 0 0 0 0 0 0 0 0 0 0 0 0 0 0 0 0 0.25 0"/>
<feBlend mode="normal" in2="BackgroundImageFix" result="effect1_dropShadow_39_4009"/>
<feBlend mode="normal" in="SourceGraphic" in2="effect1_dropShadow_39_4009" result="shape"/>
<feGaussianBlur stdDeviation="2" result="effect2_foregroundBlur_39_4009"/>
</filter>
<filter id="filter5_d_39_4009" x="0.21875" y="52" width="391.268" height="266.001" filterUnits="userSpaceOnUse" color-interpolation-filters="sRGB">
<feFlood flood-opacity="0" result="BackgroundImageFix"/>
<feColorMatrix in="SourceAlpha" type="matrix" values="0 0 0 0 0 0 0 0 0 0 0 0 0 0 0 0 0 0 127 0" result="hardAlpha"/>
<feOffset dx="10" dy="2"/>
<feGaussianBlur stdDeviation="15"/>
<feColorMatrix type="matrix" values="0 0 0 0 0.501961 0 0 0 0 0.501961 0 0 0 0 0.501961 0 0 0 0.302 0"/>
<feBlend mode="normal" in2="BackgroundImageFix" result="effect1_dropShadow_39_4009"/>
<feBlend mode="normal" in="SourceGraphic" in2="effect1_dropShadow_39_4009" result="shape"/>
</filter>
<linearGradient id="paint0_linear_39_4009" x1="75.987" y1="2" x2="75.987" y2="23" gradientUnits="userSpaceOnUse">
<stop stop-color="#6B38FC"/>
<stop offset="1" stop-color="#9F7EFD"/>
</linearGradient>
<linearGradient id="paint1_linear_39_4009" x1="214.987" y1="181" x2="214.987" y2="198" gradientUnits="userSpaceOnUse">
<stop stop-color="#6B38FC"/>
<stop offset="1" stop-color="#9F7EFD"/>
</linearGradient>
<linearGradient id="paint2_linear_39_4009" x1="173.496" y1="25.8661" x2="178.158" y2="43.2541" gradientUnits="userSpaceOnUse">
<stop stop-color="#6B38FC"/>
<stop offset="1" stop-color="#9F7EFD"/>
</linearGradient>
<linearGradient id="paint3_linear_39_4009" x1="19.7495" y1="167.064" x2="26.0055" y2="181.8" gradientUnits="userSpaceOnUse">
<stop stop-color="#6B38FC"/>
<stop offset="1" stop-color="#9F7EFD"/>
</linearGradient>
<linearGradient id="paint4_linear_39_4009" x1="169.432" y1="88.4746" x2="156.766" y2="85.5503" gradientUnits="userSpaceOnUse">
<stop stop-color="#6B38FC"/>
<stop offset="1" stop-color="#9F7EFD"/>
</linearGradient>
<linearGradient id="paint5_linear_39_4009" x1="154.382" y1="105.956" x2="220.424" y2="297.168" gradientUnits="userSpaceOnUse">
<stop stop-color="white" stop-opacity="0.596"/>
<stop offset="1" stop-color="#F7F7F7" stop-opacity="0.204"/>
</linearGradient>
</defs>
</svg>
