<svg width="20" height="20" viewBox="0 0 20 20" fill="none" xmlns="http://www.w3.org/2000/svg">
<path fill-rule="evenodd" clip-rule="evenodd" d="M2.5 0H6.38889C7.7696 0 8.88889 1.11929 8.88889 2.5V17.5C8.88889 18.8807 7.7696 20 6.38889 20H2.5C1.11929 20 0 18.8807 0 17.5V2.5C0 1.11929 1.11929 0 2.5 0ZM6.38889 18.3333C6.84662 18.3273 7.21624 17.9577 7.22222 17.5V2.5C7.21624 2.04226 6.84662 1.67265 6.38889 1.66667H2.5C2.04226 1.67265 1.67265 2.04226 1.66667 2.5V17.5C1.67265 17.9577 2.04226 18.3273 2.5 18.3333H6.38889Z" fill="#D1D1E0"/>
<path fill-rule="evenodd" clip-rule="evenodd" d="M13.6111 11.1111H17.5C18.8807 11.1111 20 12.2304 20 13.6111V17.5C20 18.8807 18.8807 20 17.5 20H13.6111C12.2304 20 11.1111 18.8807 11.1111 17.5V13.6111C11.1111 12.2304 12.2304 11.1111 13.6111 11.1111ZM17.5 18.3333C17.9577 18.3273 18.3273 17.9577 18.3333 17.5V13.6111C18.3273 13.1534 17.9577 12.7838 17.5 12.7778H13.6111C13.1534 12.7838 12.7838 13.1534 12.7778 13.6111V17.5C12.7838 17.9577 13.1534 18.3273 13.6111 18.3333H17.5Z" fill="#D1D1E0"/>
<path fill-rule="evenodd" clip-rule="evenodd" d="M13.6111 0H17.5C18.8807 0 20 1.11929 20 2.5V6.38889C20 7.7696 18.8807 8.88889 17.5 8.88889H13.6111C12.2304 8.88889 11.1111 7.7696 11.1111 6.38889V2.5C11.1111 1.11929 12.2304 0 13.6111 0ZM17.5 7.22222C17.9577 7.21624 18.3273 6.84662 18.3333 6.38889V2.5C18.3273 2.04226 17.9577 1.67265 17.5 1.66667H13.6111C13.1534 1.67265 12.7838 2.04226 12.7778 2.5V6.38889C12.7838 6.84662 13.1534 7.21624 13.6111 7.22222H17.5Z" fill="#D1D1E0"/>
</svg>
