<svg width="53" height="52" viewBox="0 0 53 52" fill="none" xmlns="http://www.w3.org/2000/svg">
<path d="M0.391373 24.7125C0.391373 21.8169 1.29781 19.2487 3.11068 16.9826C4.92356 14.7165 7.21483 13.2813 9.9845 12.6267C10.765 9.20235 12.5527 6.38232 15.2972 4.16659C18.0417 1.95085 21.1891 0.868164 24.7393 0.868164C28.214 0.868164 31.2858 1.95085 34.0051 4.09105C36.7244 6.23125 38.4869 9.00092 39.2926 12.3749H40.0984C42.3393 12.3749 44.4291 12.9288 46.3427 14.0115C48.2563 15.0942 49.7922 16.6049 50.9001 18.4933C52.0079 20.3817 52.5871 22.4716 52.5871 24.7125C52.5871 26.9282 52.0583 28.9677 51.0008 30.8561C49.9433 32.7445 48.4829 34.2553 46.6449 35.3883C44.8068 36.5214 42.7925 37.1257 40.6019 37.176C40.2746 37.176 40.0984 37.0249 40.0984 36.748V33.3992C40.0984 33.097 40.2746 32.946 40.6019 32.946C42.7421 32.8453 44.5802 31.9892 46.0909 30.3777C47.6017 28.7663 48.357 26.8779 48.357 24.6873C48.357 22.4968 47.5261 20.6084 45.8895 18.9969C44.2529 17.3855 42.3141 16.5797 40.0732 16.5797H36.0194C35.7173 16.5797 35.5662 16.4287 35.5662 16.1517L35.3647 14.6913C35.0878 11.972 33.9044 9.68075 31.8649 7.86787C29.8002 6.02982 27.4334 5.12338 24.6889 5.12338C21.9444 5.12338 19.5273 6.02982 17.513 7.86787C15.4735 9.70593 14.3404 11.972 14.0886 14.6913L13.9124 16.0258C13.9124 16.328 13.7361 16.5042 13.4088 16.5042L12.0743 16.5797C9.9845 16.8315 8.22198 17.738 6.78679 19.2739C5.3516 20.8098 4.64659 22.6227 4.64659 24.7125C4.64659 26.9031 5.40196 28.7915 6.91269 30.4029C8.42341 32.0144 10.2615 32.8704 12.4017 32.9712C12.6786 32.9712 12.8297 33.1222 12.8297 33.4244V36.7732C12.8297 37.0501 12.6786 37.2012 12.4017 37.2012C9.02771 37.0501 6.1825 35.766 3.84087 33.3488C1.49924 30.9317 0.391373 28.0613 0.391373 24.7125ZM13.862 41.5571C13.862 41.4564 13.8872 41.2802 13.9628 41.0535L18.0669 26.5254C18.218 26.047 18.4949 25.6693 18.8726 25.4175C19.2503 25.1657 19.6532 25.0398 20.0308 25.0398C20.2071 25.0398 20.4085 25.065 20.6351 25.1154C21.2394 25.2161 21.6926 25.5434 21.9948 26.047C22.2969 26.5506 22.3725 27.1045 22.1962 27.734L18.0921 42.1614C17.7899 43.2441 17.0849 43.7729 16.0274 43.7729C15.9267 43.7729 15.8512 43.7477 15.7504 43.7225C15.5994 43.6721 15.5238 43.647 15.4987 43.647C14.9447 43.4959 14.5419 43.2189 14.2649 42.8161C13.9879 42.388 13.862 41.9852 13.862 41.5571ZM20.4589 48.6324L26.6025 26.5506C26.7032 26.0722 26.955 25.6945 27.3579 25.4427C27.7607 25.1909 28.1636 25.065 28.5916 25.065C28.8183 25.065 29.0449 25.0902 29.2715 25.1405C29.8254 25.2916 30.2283 25.6189 30.5052 26.1225C30.7822 26.6261 30.8326 27.1548 30.6815 27.734L24.563 49.841C24.4623 50.269 24.2357 50.6215 23.8328 50.9236C23.43 51.2258 23.0271 51.3769 22.5487 51.3769C22.3221 51.3769 22.0955 51.3265 21.9193 51.251C21.4157 51.1251 20.9876 50.7977 20.61 50.269C20.333 49.8158 20.2826 49.287 20.4589 48.6324ZM30.8577 41.6075C30.8577 41.5068 30.8829 41.3305 30.9585 41.0284L35.0626 26.5002C35.2137 26.0218 35.4655 25.6441 35.818 25.3923C36.1956 25.1405 36.5733 25.0146 36.9762 25.0146C37.1776 25.0146 37.4042 25.0398 37.6308 25.0902C38.1596 25.2413 38.5373 25.493 38.7891 25.8707C39.0409 26.2484 39.1667 26.6513 39.1667 27.0541C39.1667 27.1297 39.1416 27.2556 39.1164 27.4066C39.0912 27.5577 39.066 27.6584 39.066 27.7088L34.9619 42.1362C34.8612 42.6146 34.6346 43.0175 34.2569 43.2945C33.8792 43.5714 33.4512 43.7225 32.9728 43.7225L32.3685 43.5966C31.8649 43.4455 31.4872 43.1937 31.2102 42.7909C30.9836 42.4132 30.8577 42.0103 30.8577 41.6075Z" fill="#D1D1E0"/>
</svg>
