<svg width="53" height="52" viewBox="0 0 53 52" fill="none" xmlns="http://www.w3.org/2000/svg">
<path d="M0.782745 24.8871C0.782745 21.9636 1.66485 19.3928 3.45428 17.1246C5.2437 14.8563 7.53718 13.3945 10.3599 12.6888C11.1412 9.26118 12.9055 6.43843 15.6526 4.22056C18.3997 2.00268 21.5501 0.918945 25.1038 0.918945C28.5818 0.918945 31.6566 2.00268 34.3785 4.14495C37.1005 6.28721 38.8647 9.05956 39.6712 12.4368H40.4777C42.7208 12.4368 44.8126 12.9912 46.7281 14.1002C48.6435 15.2091 50.1809 16.7213 51.2898 18.6367C52.3988 20.5522 52.9784 22.644 52.9784 24.8871C52.9784 28.2139 51.8191 31.1123 49.4752 33.5066C47.1565 35.9261 44.3086 37.1863 40.9565 37.2871C40.6289 37.2871 40.4525 37.1358 40.4525 36.8586V33.5066C40.4525 33.2042 40.6289 33.0529 40.9565 33.0529C43.0988 32.9521 44.9386 32.0952 46.4508 30.4822C47.963 28.8692 48.7191 27.0042 48.7191 24.8619C48.7191 22.6188 47.9126 20.7034 46.2744 19.0652C44.6362 17.427 42.6956 16.6205 40.4273 16.6205H36.3696C36.0671 16.6205 35.9159 16.4693 35.9159 16.192L35.7143 14.7303C35.4371 12.0083 34.2525 9.71484 32.2111 7.87501C30.1444 6.03518 27.7753 5.10267 25.0282 5.10267C22.2558 5.10267 19.8615 6.03518 17.8201 7.90021C15.7786 9.76524 14.6193 12.0587 14.3672 14.8311L14.216 16.0912C14.216 16.3937 14.0396 16.5701 13.712 16.5701L12.3762 16.7465C10.2843 16.9229 8.52011 17.7798 7.08353 19.3676C5.64695 20.9554 4.94126 22.7701 4.94126 24.8871C4.94126 27.0294 5.69736 28.8944 7.20954 30.5074C8.72173 32.1204 10.5616 32.9521 12.7038 33.0781C12.9811 33.0781 13.1323 33.2294 13.1323 33.5318V36.8838C13.1323 37.161 12.9811 37.3123 12.7038 37.3123C9.32661 37.2114 6.47865 35.9513 4.13476 33.5318C1.94209 31.1123 0.782745 28.2139 0.782745 24.8871ZM16.8119 35.1448C16.8119 34.5903 17.0136 34.0863 17.4168 33.683C17.8201 33.2798 18.2989 33.0781 18.9038 33.0781C19.4835 33.0781 19.9875 33.2798 20.3908 33.683C20.794 34.0863 20.9957 34.5903 20.9957 35.1448C20.9957 35.7497 20.794 36.2537 20.3908 36.657C19.9875 37.0854 19.5087 37.2871 18.9038 37.2871C18.3241 37.2871 17.8201 37.0854 17.4168 36.657C17.0136 36.2537 16.8119 35.7497 16.8119 35.1448ZM16.8119 44.2935C16.8119 43.6887 17.0136 43.1846 17.4168 42.7813C17.8201 42.4033 18.2989 42.2017 18.8786 42.2017C19.4583 42.2017 19.9623 42.4033 20.3656 42.7813C20.7688 43.1846 20.9705 43.6635 20.9705 44.2683C20.9705 44.8732 20.7688 45.3521 20.3656 45.7553C19.9623 46.1586 19.4835 46.335 18.8786 46.335C18.2989 46.335 17.7949 46.1334 17.3916 45.7553C17.0136 45.3773 16.8119 44.8732 16.8119 44.2935ZM24.8517 40.009C24.8517 39.4293 25.0534 38.9001 25.4818 38.4464C25.8851 38.0432 26.3639 37.8415 26.9184 37.8415C27.4981 37.8415 28.0021 38.0684 28.4306 38.4968C28.859 38.9253 29.0859 39.4293 29.0859 40.009C29.0859 40.5887 28.8842 41.0927 28.4558 41.5212C28.0273 41.9496 27.5233 42.1513 26.9184 42.1513C26.3387 42.1513 25.8599 41.9496 25.4566 41.5212C25.0534 41.0927 24.8517 40.5887 24.8517 40.009ZM24.8517 30.8855C24.8517 30.3058 25.0534 29.8017 25.4818 29.3733C25.9355 28.97 26.4143 28.7684 26.9184 28.7684C27.5233 28.7684 28.0273 28.97 28.4558 29.3985C28.8842 29.8269 29.0859 30.3058 29.0859 30.9107C29.0859 31.4903 28.8842 31.9944 28.4558 32.3977C28.0273 32.8009 27.5233 33.0025 26.9184 33.0025C26.3387 33.0025 25.8599 32.8009 25.4566 32.3977C25.0534 31.9692 24.8517 31.4651 24.8517 30.8855ZM24.8517 49.2333C24.8517 48.6537 25.0534 48.1496 25.4818 47.696C25.8851 47.2927 26.3639 47.0911 26.9184 47.0911C27.5233 47.0911 28.0273 47.2927 28.4558 47.7212C28.8842 48.1496 29.0859 48.6537 29.0859 49.2333C29.0859 49.813 28.8842 50.3171 28.4558 50.7203C28.0273 51.1236 27.5233 51.3252 26.9184 51.3252C26.3387 51.3252 25.8599 51.1236 25.4566 50.7203C25.0534 50.2919 24.8517 49.813 24.8517 49.2333ZM32.9671 35.1448C32.9671 34.5903 33.1688 34.1115 33.5972 33.683C34.0257 33.2546 34.5297 33.0529 35.1094 33.0529C35.6891 33.0529 36.1931 33.2546 36.5964 33.6578C36.9996 34.0611 37.2013 34.5651 37.2013 35.1196C37.2013 35.7245 36.9996 36.2285 36.5964 36.6318C36.1931 37.0602 35.7143 37.2619 35.1094 37.2619C34.5045 37.2619 34.0005 37.0602 33.5972 36.6318C33.194 36.2285 32.9671 35.7245 32.9671 35.1448ZM32.9671 44.2935C32.9671 43.7391 33.1688 43.235 33.5972 42.7813C34.0005 42.4033 34.5045 42.2017 35.1094 42.2017C35.7143 42.2017 36.1931 42.4033 36.5964 42.7813C36.9996 43.1594 37.1761 43.6635 37.1761 44.2683C37.1761 44.8732 36.9744 45.3521 36.5964 45.7553C36.1931 46.1586 35.7143 46.335 35.1094 46.335C34.5045 46.335 34.0005 46.1334 33.5972 45.7301C33.194 45.3521 32.9671 44.8732 32.9671 44.2935Z" fill="#D1D1E0"/>
</svg>
