<svg width="7" height="16" viewBox="0 0 7 16" fill="none" xmlns="http://www.w3.org/2000/svg">
<path d="M5.83333 10.7635V2.003C5.83333 0.8965 4.78625 0 3.5 0C2.21142 0 1.16667 0.8935 1.16667 2.003V10.7635C0.450333 11.313 0 12.1115 0 13C0 14.656 1.56742 16 3.5 16C5.432 16 7 14.656 7 13C7 12.1115 6.55025 11.313 5.83333 10.7635ZM3.5 15C2.21142 15 1.16667 14.1045 1.16667 13C1.16667 12.26 1.63625 11.6135 2.33333 11.2675V2.0025C2.33333 1.4485 2.856 1 3.5 1C4.14808 1 4.66667 1.4485 4.66667 2.0025V11.2675C5.36375 11.613 5.83333 12.2595 5.83333 13C5.83333 14.1045 4.78858 15 3.5 15Z" fill="#D1D1E0"/>
<path d="M4.074 11.583C4.08042 11.5555 4.08333 11.5275 4.08333 11.4985V6.5015C4.08333 6.2245 3.82492 6 3.5 6C3.17742 6 2.91667 6.228 2.91667 6.5015V11.4985C2.91667 11.5275 2.91958 11.5555 2.92483 11.583C2.24117 11.7865 1.75 12.344 1.75 13C1.75 13.8285 2.53342 14.5 3.5 14.5C4.46658 14.5 5.25 13.8285 5.25 13C5.25 12.344 4.75883 11.7865 4.074 11.583Z" fill="#D1D1E0"/>
</svg>
