<svg width="53" height="52" viewBox="0 0 53 52" fill="none" xmlns="http://www.w3.org/2000/svg">
<path d="M0.587067 24.5728C0.587067 27.369 1.41837 29.8629 3.08097 32.0546C4.74358 34.2462 6.88481 35.7576 9.52986 36.5637L7.89245 40.7958C7.81687 41.1485 7.94283 41.35 8.24512 41.35H13.6108L10.9909 50.8722H11.6963L21.6971 37.7225C21.7979 37.6218 21.7979 37.4958 21.7475 37.3699C21.6971 37.2439 21.5711 37.1935 21.3948 37.1935H15.9032L22.1505 25.5049C22.3017 25.1522 22.2009 24.9759 21.7979 24.9759H14.3917C14.165 24.9759 13.9635 25.1018 13.8375 25.3286L11.0917 32.5584C9.30314 32.1049 7.81687 31.1225 6.6329 29.6362C5.44892 28.15 4.86953 26.4622 4.86953 24.5728C4.86953 22.482 5.57488 20.6682 6.98557 19.1316C8.39627 17.5949 10.1596 16.7133 12.2757 16.4613L13.5856 16.285C13.9131 16.285 14.0894 16.1339 14.0894 15.8568L14.2658 14.5468C14.5177 11.8262 15.6513 9.53384 17.6917 7.69489C19.7322 5.85595 22.1253 4.92389 24.8712 4.92389C27.617 4.92389 30.0101 5.85595 32.0506 7.69489C34.1162 9.53384 35.275 11.8262 35.5773 14.5468L35.7285 16.0079C35.7285 16.3102 35.8796 16.4613 36.2071 16.4613H40.2628C42.5552 16.4613 44.4949 17.2675 46.1071 18.8545C47.7194 20.4415 48.5255 22.356 48.5255 24.598C48.5255 26.7393 47.7697 28.6034 46.2835 30.1652C44.7972 31.7271 42.9583 32.5836 40.7667 32.7599C40.4392 32.7599 40.2628 32.9111 40.2628 33.2385V36.6897C40.2628 36.9668 40.4392 37.1179 40.7667 37.1179C42.4041 37.0676 43.9659 36.6897 45.4522 36.0095C46.9384 35.3294 48.2232 34.4225 49.2812 33.3141C50.3392 32.2057 51.1957 30.8958 51.8255 29.3591C52.4553 27.8477 52.7828 26.2606 52.7828 24.6232C52.7828 22.356 52.2285 20.2652 51.095 18.3507C49.9614 16.4362 48.4499 14.9247 46.5354 13.8163C44.6209 12.7079 42.53 12.1537 40.288 12.1537H39.4819C38.6506 8.8033 36.8872 6.05748 34.1666 3.94144C31.446 1.8254 28.3727 0.742188 24.8963 0.742188C21.3444 0.742188 18.1704 1.85059 15.4245 4.04221C12.6787 6.23382 10.9154 9.05521 10.1344 12.5064C7.36344 13.1613 5.07106 14.5972 3.25731 16.8644C1.44356 19.1316 0.587067 21.6759 0.587067 24.5728ZM21.1429 49.4111C21.1429 49.8142 21.2688 50.1921 21.5208 50.5699C21.7727 50.9478 22.1757 51.2249 22.6795 51.376C23.0322 51.4516 23.2337 51.502 23.3093 51.502C23.536 51.502 23.8383 51.4264 24.2666 51.2501C24.7956 51.0234 25.1483 50.5699 25.3246 49.9401L26.0299 47.2951C26.1811 46.7409 26.1307 46.2119 25.8284 45.7081C25.5261 45.2042 25.0979 44.8768 24.4933 44.7004C23.9391 44.5493 23.4101 44.5997 22.9063 44.9019C22.4024 45.2042 22.0498 45.6325 21.8734 46.2371L21.1933 48.7562C21.1681 49.1844 21.1429 49.4111 21.1429 49.4111ZM24.5185 37.395C24.5185 37.7477 24.6444 38.1256 24.8963 38.5034C25.1483 38.8813 25.5261 39.1584 26.0299 39.3347C26.5841 39.5111 27.1383 39.4859 27.6422 39.2088C28.146 38.9317 28.4735 38.5034 28.6498 37.8989L29.4055 35.279C29.5567 34.7248 29.4811 34.1958 29.204 33.692C28.9017 33.1882 28.4483 32.8355 27.8689 32.6591C27.2895 32.508 26.7605 32.5584 26.2315 32.8607C25.7025 33.163 25.375 33.5912 25.1986 34.1706L24.5941 36.7149C24.5437 37.1431 24.5185 37.3699 24.5185 37.395ZM31.6223 41.5516C31.6223 41.9798 31.7483 42.408 32.0254 42.8363C32.3025 43.2645 32.7055 43.5416 33.2094 43.718C33.2597 43.718 33.3605 43.7432 33.5117 43.7684C33.6376 43.7936 33.7384 43.8187 33.8139 43.8187C34.1414 43.8187 34.4689 43.7684 34.7712 43.6172C35.2498 43.4409 35.6025 42.9622 35.804 42.1813L36.4338 39.637C36.6101 39.0576 36.5598 38.5034 36.2827 37.9744C36.0056 37.4454 35.5773 37.0928 35.0231 36.9164C34.3933 36.7653 33.814 36.8408 33.3101 37.1179C32.8063 37.4202 32.4788 37.8737 32.3781 38.4531L31.6979 41.0477C31.6475 41.1989 31.6223 41.3752 31.6223 41.5516ZM35.0483 29.4851C35.0231 29.8881 35.1491 30.266 35.4262 30.6691C35.7033 31.0721 36.1063 31.3744 36.6605 31.6263C36.8621 31.7271 37.0636 31.7775 37.3155 31.7775C37.5926 31.7775 37.8697 31.7019 38.172 31.5759C38.701 31.324 39.0537 30.8454 39.2804 30.14L40.0109 27.5454C40.0613 27.2179 40.0865 27.0416 40.0865 26.9912C40.0865 26.5629 39.9605 26.1599 39.6834 25.7568C39.4063 25.3538 39.0033 25.0767 38.4491 24.9255C38.3987 24.9255 38.2979 24.9003 38.172 24.8751C38.0208 24.7996 37.9201 24.7996 37.8445 24.7996C37.4163 24.7996 37.0132 24.9255 36.6101 25.1774C36.2071 25.4293 35.93 25.8324 35.7788 26.3866L35.0987 28.9309C35.0735 29.1324 35.0483 29.3087 35.0483 29.4851Z" fill="#D1D1E0"/>
</svg>
