<svg width="14" height="14" viewBox="0 0 14 14" fill="none" xmlns="http://www.w3.org/2000/svg">
<path d="M5.5 14H3.5C3.23489 13.9996 2.98075 13.8942 2.79329 13.7067C2.60583 13.5193 2.50036 13.2651 2.5 13V9H3.5V13H5.5V9H6.5V13C6.49964 13.2651 6.39417 13.5193 6.20671 13.7067C6.01925 13.8942 5.76511 13.9996 5.5 14Z" fill="#D1D1E0"/>
<path d="M11.5 9H10.625L9.5 13.5155L8.396 9H7.5L8.75 14H10.25L11.5 9Z" fill="#D1D1E0"/>
<path d="M7.5 0H6.5V2.5H7.5V0Z" fill="#D1D1E0"/>
<path d="M11.5962 1.6963L9.84329 3.44922L10.5503 4.15625L12.3032 2.40334L11.5962 1.6963Z" fill="#D1D1E0"/>
<path d="M14 6.5H11.5V7.5H14V6.5Z" fill="#D1D1E0"/>
<path d="M2.5 6.5H0V7.5H2.5V6.5Z" fill="#D1D1E0"/>
<path d="M2.40381 1.69726L1.69678 2.4043L3.4497 4.15721L4.15673 3.45018L2.40381 1.69726Z" fill="#D1D1E0"/>
<path d="M10 7.5H9V7C9 6.46957 8.78929 5.96086 8.41421 5.58579C8.03914 5.21071 7.53043 5 7 5C6.46957 5 5.96086 5.21071 5.58579 5.58579C5.21071 5.96086 5 6.46957 5 7V7.5H4V7C4 6.20435 4.31607 5.44129 4.87868 4.87868C5.44129 4.31607 6.20435 4 7 4C7.79565 4 8.55871 4.31607 9.12132 4.87868C9.68393 5.44129 10 6.20435 10 7V7.5Z" fill="#D1D1E0"/>
</svg>
