<svg width="15" height="15" viewBox="0 0 15 15" fill="none" xmlns="http://www.w3.org/2000/svg">
<path d="M8.33849 0.518239C8.17968 0.200624 7.85511 0 7.49999 0C7.1449 0 6.82029 0.200624 6.66147 0.518239L0.0989834 13.6432C-0.067282 13.9757 -0.0213353 14.3751 0.216096 14.6611C0.453526 14.9473 0.837582 15.0661 1.19506 14.9639L5.88254 13.6247C6.28501 13.5096 6.56249 13.1417 6.56249 12.7232V8.43748C6.56249 7.9197 6.98223 7.49998 7.49999 7.49998C8.01777 7.49998 8.43749 7.9197 8.43749 8.43748V12.7232C8.43749 13.1417 8.71499 13.5096 9.11746 13.6247L13.8049 14.9639C14.1624 15.0661 14.5465 14.9473 14.7839 14.6611C15.0214 14.3751 15.0673 13.9757 14.901 13.6432L8.33849 0.518239Z" fill="#FFFE00"/>
</svg>
